<svg width="122" height="23" viewBox="0 0 122 23" fill="none" xmlns="http://www.w3.org/2000/svg">
<path d="M0.88 18L8.44 1.2H11.512L19.096 18H15.832L9.328 2.856H10.576L4.096 18H0.88ZM4.36 14.112L5.2 11.664H14.272L15.112 14.112H4.36ZM21.3443 22.824C20.7203 22.824 20.0963 22.72 19.4723 22.512C18.8483 22.304 18.3283 22.016 17.9123 21.648L19.1123 19.44C19.4163 19.712 19.7603 19.928 20.1443 20.088C20.5283 20.248 20.9203 20.328 21.3203 20.328C21.8643 20.328 22.3043 20.192 22.6403 19.92C22.9763 19.648 23.2883 19.192 23.5763 18.552L24.3203 16.872L24.5603 16.512L29.4083 5.184H32.2883L26.2883 19.032C25.8883 19.992 25.4403 20.752 24.9443 21.312C24.4643 21.872 23.9203 22.264 23.3123 22.488C22.7203 22.712 22.0643 22.824 21.3443 22.824ZM23.9843 18.456L18.2003 5.184H21.3203L26.0243 16.248L23.9843 18.456ZM41.6609 18V15.408L41.4929 14.856V10.32C41.4929 9.44 41.2289 8.76 40.7009 8.28C40.1729 7.784 39.3729 7.536 38.3009 7.536C37.5809 7.536 36.8689 7.648 36.1649 7.872C35.4769 8.096 34.8929 8.408 34.4129 8.808L33.2369 6.624C33.9249 6.096 34.7409 5.704 35.6849 5.448C36.6449 5.176 37.6369 5.04 38.6609 5.04C40.5169 5.04 41.9489 5.488 42.9569 6.384C43.9809 7.264 44.4929 8.632 44.4929 10.488V18H41.6609ZM37.6289 18.168C36.6689 18.168 35.8289 18.008 35.1089 17.688C34.3889 17.352 33.8289 16.896 33.4289 16.32C33.0449 15.728 32.8529 15.064 32.8529 14.328C32.8529 13.608 33.0209 12.96 33.3569 12.384C33.7089 11.808 34.2769 11.352 35.0609 11.016C35.8449 10.68 36.8849 10.512 38.1809 10.512H41.9009V12.504H38.3969C37.3729 12.504 36.6849 12.672 36.3329 13.008C35.9809 13.328 35.8049 13.728 35.8049 14.208C35.8049 14.752 36.0209 15.184 36.4529 15.504C36.8849 15.824 37.4849 15.984 38.2529 15.984C38.9889 15.984 39.6449 15.816 40.2209 15.48C40.8129 15.144 41.2369 14.648 41.4929 13.992L41.9969 15.792C41.7089 16.544 41.1889 17.128 40.4369 17.544C39.7009 17.96 38.7649 18.168 37.6289 18.168ZM53.767 18.168C52.679 18.168 51.719 17.968 50.887 17.568C50.055 17.152 49.407 16.528 48.943 15.696C48.479 14.848 48.247 13.784 48.247 12.504V5.184H51.247V12.096C51.247 13.248 51.503 14.112 52.015 14.688C52.543 15.248 53.287 15.528 54.247 15.528C54.951 15.528 55.559 15.384 56.071 15.096C56.599 14.808 57.007 14.376 57.295 13.8C57.599 13.224 57.751 12.512 57.751 11.664V5.184H60.751V18H57.895V14.544L58.399 15.6C57.967 16.432 57.335 17.072 56.503 17.52C55.671 17.952 54.759 18.168 53.767 18.168ZM63.6229 18V16.104L71.5189 6.552L72.0709 7.584H63.7669V5.184H74.4709V7.08L66.5749 16.632L65.9749 15.6H74.6869V18H63.6229ZM84.7244 5.04C85.7484 5.04 86.6604 5.24 87.4604 5.64C88.2764 6.04 88.9164 6.656 89.3804 7.488C89.8444 8.304 90.0764 9.36 90.0764 10.656V18H87.0764V11.04C87.0764 9.904 86.8044 9.056 86.2604 8.496C85.7324 7.936 84.9884 7.656 84.0284 7.656C83.3244 7.656 82.7004 7.8 82.1564 8.088C81.6124 8.376 81.1884 8.808 80.8844 9.384C80.5964 9.944 80.4524 10.656 80.4524 11.52V18H77.4524V0.191999H80.4524V8.64L79.8044 7.584C80.2524 6.768 80.9004 6.144 81.7484 5.712C82.6124 5.264 83.6044 5.04 84.7244 5.04ZM101.778 18V15.408L101.61 14.856V10.32C101.61 9.44 101.346 8.76 100.818 8.28C100.29 7.784 99.4901 7.536 98.4181 7.536C97.6981 7.536 96.9861 7.648 96.2821 7.872C95.5941 8.096 95.0101 8.408 94.5301 8.808L93.3541 6.624C94.0421 6.096 94.8581 5.704 95.8021 5.448C96.7621 5.176 97.7541 5.04 98.7781 5.04C100.634 5.04 102.066 5.488 103.074 6.384C104.098 7.264 104.61 8.632 104.61 10.488V18H101.778ZM97.7461 18.168C96.7861 18.168 95.9461 18.008 95.2261 17.688C94.5061 17.352 93.9461 16.896 93.5461 16.32C93.1621 15.728 92.9701 15.064 92.9701 14.328C92.9701 13.608 93.1381 12.96 93.4741 12.384C93.8261 11.808 94.3941 11.352 95.1781 11.016C95.9621 10.68 97.0021 10.512 98.2981 10.512H102.018V12.504H98.5141C97.4901 12.504 96.8021 12.672 96.4501 13.008C96.0981 13.328 95.9221 13.728 95.9221 14.208C95.9221 14.752 96.1381 15.184 96.5701 15.504C97.0021 15.824 97.6021 15.984 98.3701 15.984C99.1061 15.984 99.7621 15.816 100.338 15.48C100.93 15.144 101.354 14.648 101.61 13.992L102.114 15.792C101.826 16.544 101.306 17.128 100.554 17.544C99.8181 17.96 98.8821 18.168 97.7461 18.168ZM115.732 5.04C116.756 5.04 117.668 5.24 118.468 5.64C119.284 6.04 119.924 6.656 120.388 7.488C120.852 8.304 121.084 9.36 121.084 10.656V18H118.084V11.04C118.084 9.904 117.812 9.056 117.268 8.496C116.74 7.936 115.996 7.656 115.036 7.656C114.332 7.656 113.708 7.8 113.164 8.088C112.62 8.376 112.196 8.808 111.892 9.384C111.604 9.944 111.46 10.656 111.46 11.52V18H108.46V5.184H111.316V8.64L110.812 7.584C111.26 6.768 111.908 6.144 112.756 5.712C113.62 5.264 114.612 5.04 115.732 5.04Z" fill="white"/>
</svg>
